<svg width="1142" height="140" viewBox="0 0 1142 140" fill="none" xmlns="http://www.w3.org/2000/svg">
<g clip-path="url(#clip0_47_234)">
<path d="M549.25 53.05V48.95H556.7V20.65H549.25V16.55H568.75V20.65H561.3V48.95H568.75V53.05H549.25Z" fill="#00A69D"/>
<path d="M578.48 53.05V16.55H584.48L595.63 47.8C595.564 46.9667 595.48 45.95 595.38 44.75C595.314 43.5167 595.247 42.2333 595.18 40.9C595.147 39.5333 595.13 38.25 595.13 37.05V16.55H599.48V53.05H593.48L582.38 21.8C582.447 22.6 582.514 23.6167 582.58 24.85C582.647 26.05 582.697 27.3333 582.73 28.7C582.797 30.0333 582.83 31.3167 582.83 32.55V53.05H578.48Z" fill="#00A69D"/>
<path d="M608.461 53.05V16.55H614.461L625.611 47.8C625.544 46.9667 625.461 45.95 625.361 44.75C625.294 43.5167 625.228 42.2333 625.161 40.9C625.128 39.5333 625.111 38.25 625.111 37.05V16.55H629.461V53.05H623.461L612.361 21.8C612.428 22.6 612.494 23.6167 612.561 24.85C612.628 26.05 612.678 27.3333 612.711 28.7C612.778 30.0333 612.811 31.3167 612.811 32.55V53.05H608.461Z" fill="#00A69D"/>
<path d="M648.941 53.55C646.741 53.55 644.841 53.1333 643.241 52.3C641.675 51.4667 640.458 50.2667 639.591 48.7C638.758 47.1 638.341 45.2167 638.341 43.05V26.55C638.341 24.35 638.758 22.4667 639.591 20.9C640.458 19.3333 641.675 18.1333 643.241 17.3C644.841 16.4667 646.741 16.05 648.941 16.05C651.141 16.05 653.025 16.4667 654.591 17.3C656.191 18.1333 657.408 19.3333 658.241 20.9C659.108 22.4667 659.541 24.3333 659.541 26.5V43.05C659.541 45.2167 659.108 47.1 658.241 48.7C657.408 50.2667 656.191 51.4667 654.591 52.3C653.025 53.1333 651.141 53.55 648.941 53.55ZM648.941 49.5C650.908 49.5 652.408 48.95 653.441 47.85C654.508 46.7167 655.041 45.1167 655.041 43.05V26.55C655.041 24.4833 654.508 22.9 653.441 21.8C652.408 20.6667 650.908 20.1 648.941 20.1C647.008 20.1 645.508 20.6667 644.441 21.8C643.375 22.9 642.841 24.4833 642.841 26.55V43.05C642.841 45.1167 643.375 46.7167 644.441 47.85C645.508 48.95 647.008 49.5 648.941 49.5Z" fill="#00A69D"/>
<path d="M675.822 53.05L666.422 16.55H671.072L677.272 41.35C677.705 43.0833 678.072 44.7 678.372 46.2C678.672 47.6667 678.889 48.7833 679.022 49.55C679.155 48.7833 679.355 47.6667 679.622 46.2C679.922 44.7 680.289 43.0833 680.722 41.35L686.872 16.55H691.422L681.972 53.05H675.822Z" fill="#00A69D"/>
<path d="M696.402 53.05L705.902 16.55H711.952L721.402 53.05H716.852L714.452 43.35H703.402L701.002 53.05H696.402ZM704.302 39.55H713.502L710.702 28.3C710.169 26.1667 709.752 24.3833 709.452 22.95C709.152 21.5167 708.969 20.5833 708.902 20.15C708.836 20.5833 708.652 21.5167 708.352 22.95C708.052 24.3833 707.636 26.15 707.102 28.25L704.302 39.55Z" fill="#00A69D"/>
<path d="M736.633 53.05V20.6H726.633V16.5H751.133V20.6H741.133V53.05H736.633Z" fill="#00A69D"/>
<path d="M759.113 53.05V48.95H766.563V20.65H759.113V16.55H778.613V20.65H771.163V48.95H778.613V53.05H759.113Z" fill="#00A69D"/>
<path d="M795.744 53.05L786.344 16.55H790.994L797.194 41.35C797.627 43.0833 797.994 44.7 798.294 46.2C798.594 47.6667 798.81 48.7833 798.944 49.55C799.077 48.7833 799.277 47.6667 799.544 46.2C799.844 44.7 800.21 43.0833 800.644 41.35L806.794 16.55H811.344L801.894 53.05H795.744Z" fill="#00A69D"/>
<path d="M818.824 53.05V16.55H839.824V20.65H823.274V31.95H838.074V36H823.274V48.95H839.824V53.05H818.824Z" fill="#00A69D"/>
<path d="M888.985 53.55C886.785 53.55 884.869 53.1333 883.235 52.3C881.635 51.4667 880.385 50.2667 879.485 48.7C878.619 47.1 878.185 45.2167 878.185 43.05V26.55C878.185 24.35 878.619 22.4667 879.485 20.9C880.385 19.3333 881.635 18.1333 883.235 17.3C884.869 16.4667 886.785 16.05 888.985 16.05C891.185 16.05 893.085 16.4833 894.685 17.35C896.285 18.1833 897.518 19.3833 898.385 20.95C899.252 22.5167 899.685 24.3833 899.685 26.55H895.185C895.185 24.4833 894.635 22.9 893.535 21.8C892.468 20.6667 890.952 20.1 888.985 20.1C887.019 20.1 885.468 20.65 884.335 21.75C883.235 22.85 882.685 24.4333 882.685 26.5V43.05C882.685 45.1167 883.235 46.7167 884.335 47.85C885.468 48.95 887.019 49.5 888.985 49.5C890.952 49.5 892.468 48.95 893.535 47.85C894.635 46.7167 895.185 45.1167 895.185 43.05H899.685C899.685 45.1833 899.252 47.05 898.385 48.65C897.518 50.2167 896.285 51.4333 894.685 52.3C893.085 53.1333 891.185 53.55 888.985 53.55Z" fill="#00A69D"/>
<path d="M908.416 53.05V16.55H912.916V32.15H924.616V16.55H929.116V53.05H924.616V36.25H912.916V53.05H908.416Z" fill="#00A69D"/>
<path d="M938.746 53.05V16.55H959.746V20.65H943.196V31.95H957.996V36H943.196V48.95H959.746V53.05H938.746Z" fill="#00A69D"/>
<path d="M967.527 53.05V16.55H973.427L977.227 28.35C977.593 29.4167 977.927 30.4833 978.227 31.55C978.527 32.5833 978.743 33.3833 978.877 33.95C979.043 33.3833 979.26 32.5833 979.527 31.55C979.793 30.4833 980.093 29.4 980.427 28.3L984.027 16.55H989.927V53.05H985.527V39.8C985.527 38.3333 985.577 36.6667 985.677 34.8C985.777 32.9333 985.91 31.0333 986.077 29.1C986.243 27.1333 986.41 25.2667 986.577 23.5C986.777 21.7 986.943 20.1333 987.077 18.8L981.177 37.05H976.427L970.477 18.8C970.643 20.1 970.81 21.6167 970.977 23.35C971.143 25.05 971.293 26.8667 971.427 28.8C971.56 30.7 971.677 32.6 971.777 34.5C971.877 36.4 971.927 38.1667 971.927 39.8V53.05H967.527Z" fill="#00A69D"/>
<path d="M998.957 53.05V48.95H1006.41V20.65H998.957V16.55H1018.46V20.65H1011.01V48.95H1018.46V53.05H998.957Z" fill="#00A69D"/>
<path d="M1038.89 53.55C1036.49 53.55 1034.42 53.15 1032.69 52.35C1030.99 51.55 1029.67 50.4 1028.74 48.9C1027.8 47.4 1027.32 45.6167 1027.29 43.55H1031.79C1031.79 45.3833 1032.4 46.8333 1033.64 47.9C1034.9 48.9667 1036.65 49.5 1038.89 49.5C1040.99 49.5 1042.62 48.9833 1043.79 47.95C1044.99 46.9167 1045.59 45.4833 1045.59 43.65C1045.59 42.1833 1045.19 40.9 1044.39 39.8C1043.62 38.7 1042.5 37.9333 1041.04 37.5L1036.09 35.95C1033.59 35.1833 1031.65 33.9 1030.29 32.1C1028.95 30.3 1028.29 28.1833 1028.29 25.75C1028.29 23.7833 1028.72 22.0833 1029.59 20.65C1030.49 19.1833 1031.74 18.05 1033.34 17.25C1034.94 16.4167 1036.82 16 1038.99 16C1042.19 16 1044.75 16.9 1046.69 18.7C1048.62 20.4667 1049.6 22.8333 1049.64 25.8H1045.14C1045.14 24 1044.59 22.6 1043.49 21.6C1042.42 20.5667 1040.9 20.05 1038.94 20.05C1037 20.05 1035.49 20.5167 1034.39 21.45C1033.32 22.3833 1032.79 23.6833 1032.79 25.35C1032.79 26.85 1033.19 28.15 1033.99 29.25C1034.79 30.35 1035.94 31.1333 1037.44 31.6L1042.44 33.2C1044.87 33.9667 1046.75 35.2667 1048.09 37.1C1049.42 38.9333 1050.09 41.0833 1050.09 43.55C1050.09 45.55 1049.62 47.3 1048.69 48.8C1047.75 50.3 1046.44 51.4667 1044.74 52.3C1043.07 53.1333 1041.12 53.55 1038.89 53.55Z" fill="#00A69D"/>
<path d="M1066.42 53.05V20.6H1056.42V16.5H1080.92V20.6H1070.92V53.05H1066.42Z" fill="#00A69D"/>
<path d="M1088.25 53.05V16.55H1099.55C1101.72 16.55 1103.62 17 1105.25 17.9C1106.88 18.7667 1108.15 19.9833 1109.05 21.55C1109.95 23.1167 1110.4 24.95 1110.4 27.05C1110.4 29.5167 1109.75 31.6333 1108.45 33.4C1107.18 35.1667 1105.45 36.3833 1103.25 37.05L1110.9 53.05H1105.6L1098.6 37.55H1092.75V53.05H1088.25ZM1092.75 33.5H1099.55C1101.42 33.5 1102.92 32.9167 1104.05 31.75C1105.18 30.55 1105.75 28.9833 1105.75 27.05C1105.75 25.0833 1105.18 23.5167 1104.05 22.35C1102.92 21.1833 1101.42 20.6 1099.55 20.6H1092.75V33.5Z" fill="#00A69D"/>
<path d="M1126.38 53.05V39.4L1115.38 16.55H1120.03L1127.28 31.55C1127.68 32.3833 1128 33.1 1128.23 33.7C1128.46 34.2667 1128.61 34.6833 1128.68 34.95C1128.75 34.6833 1128.9 34.2667 1129.13 33.7C1129.4 33.1 1129.73 32.3833 1130.13 31.55L1137.23 16.55H1141.88L1130.88 39.4V53.05H1126.38Z" fill="#00A69D"/>
<path d="M555.65 126.3L563.75 116.05C564.083 115.617 564.467 115.2 564.9 114.8C565.333 114.367 565.7 114.033 566 113.8V113.35C565.567 113.383 565.017 113.433 564.35 113.5C563.683 113.533 563.067 113.55 562.5 113.55H546V109.55H562.5C563.067 109.55 563.683 109.583 564.35 109.65C565.017 109.683 565.567 109.733 566 109.8V109.35C565.767 109.15 565.433 108.833 565 108.4C564.6 107.967 564.183 107.5 563.75 107L555.65 96.8H560.9L572.5 111.55L560.95 126.3H555.65Z" fill="#00A69D"/>
<path d="M619.161 128.55C616.761 128.55 614.694 128.15 612.961 127.35C611.261 126.55 609.944 125.4 609.011 123.9C608.078 122.4 607.594 120.617 607.561 118.55H612.061C612.061 120.383 612.678 121.833 613.911 122.9C615.178 123.967 616.928 124.5 619.161 124.5C621.261 124.5 622.894 123.983 624.061 122.95C625.261 121.917 625.861 120.483 625.861 118.65C625.861 117.183 625.461 115.9 624.661 114.8C623.894 113.7 622.778 112.933 621.311 112.5L616.361 110.95C613.861 110.183 611.928 108.9 610.561 107.1C609.228 105.3 608.561 103.183 608.561 100.75C608.561 98.7833 608.994 97.0833 609.861 95.65C610.761 94.1833 612.011 93.05 613.611 92.25C615.211 91.4167 617.094 91 619.261 91C622.461 91 625.028 91.9 626.961 93.7C628.894 95.4667 629.878 97.8333 629.911 100.8H625.411C625.411 99 624.861 97.6 623.761 96.6C622.694 95.5667 621.178 95.05 619.211 95.05C617.278 95.05 615.761 95.5167 614.661 96.45C613.594 97.3833 613.061 98.6833 613.061 100.35C613.061 101.85 613.461 103.15 614.261 104.25C615.061 105.35 616.211 106.133 617.711 106.6L622.711 108.2C625.144 108.967 627.028 110.267 628.361 112.1C629.694 113.933 630.361 116.083 630.361 118.55C630.361 120.55 629.894 122.3 628.961 123.8C628.028 125.3 626.711 126.467 625.011 127.3C623.344 128.133 621.394 128.55 619.161 128.55Z" fill="#00A69D"/>
<path d="M648.941 128.55C645.541 128.55 642.941 127.617 641.141 125.75C639.341 123.85 638.441 121.283 638.441 118.05V91.55H642.941V118.05C642.941 120.05 643.425 121.633 644.391 122.8C645.391 123.967 646.908 124.55 648.941 124.55C650.941 124.55 652.441 123.967 653.441 122.8C654.441 121.633 654.941 120.05 654.941 118.05V91.55H659.441V118.05C659.441 121.317 658.541 123.883 656.741 125.75C654.975 127.617 652.375 128.55 648.941 128.55Z" fill="#00A69D"/>
<path d="M679.122 128.55C676.722 128.55 674.655 128.15 672.922 127.35C671.222 126.55 669.905 125.4 668.972 123.9C668.039 122.4 667.555 120.617 667.522 118.55H672.022C672.022 120.383 672.639 121.833 673.872 122.9C675.139 123.967 676.889 124.5 679.122 124.5C681.222 124.5 682.855 123.983 684.022 122.95C685.222 121.917 685.822 120.483 685.822 118.65C685.822 117.183 685.422 115.9 684.622 114.8C683.855 113.7 682.739 112.933 681.272 112.5L676.322 110.95C673.822 110.183 671.889 108.9 670.522 107.1C669.189 105.3 668.522 103.183 668.522 100.75C668.522 98.7833 668.955 97.0833 669.822 95.65C670.722 94.1833 671.972 93.05 673.572 92.25C675.172 91.4167 677.055 91 679.222 91C682.422 91 684.989 91.9 686.922 93.7C688.855 95.4667 689.839 97.8333 689.872 100.8H685.372C685.372 99 684.822 97.6 683.722 96.6C682.655 95.5667 681.139 95.05 679.172 95.05C677.239 95.05 675.722 95.5167 674.622 96.45C673.555 97.3833 673.022 98.6833 673.022 100.35C673.022 101.85 673.422 103.15 674.222 104.25C675.022 105.35 676.172 106.133 677.672 106.6L682.672 108.2C685.105 108.967 686.989 110.267 688.322 112.1C689.655 113.933 690.322 116.083 690.322 118.55C690.322 120.55 689.855 122.3 688.922 123.8C687.989 125.3 686.672 126.467 684.972 127.3C683.305 128.133 681.355 128.55 679.122 128.55Z" fill="#00A69D"/>
<path d="M706.652 128.05V95.6H696.652V91.5H721.152V95.6H711.152V128.05H706.652Z" fill="#00A69D"/>
<path d="M726.383 128.05L735.883 91.55H741.933L751.383 128.05H746.833L744.433 118.35H733.383L730.983 128.05H726.383ZM734.283 114.55H743.483L740.683 103.3C740.149 101.167 739.733 99.3833 739.433 97.95C739.133 96.5167 738.949 95.5833 738.883 95.15C738.816 95.5833 738.633 96.5167 738.333 97.95C738.033 99.3833 737.616 101.15 737.083 103.25L734.283 114.55Z" fill="#00A69D"/>
<path d="M759.113 128.05V123.95H766.563V95.65H759.113V91.55H778.613V95.65H771.163V123.95H778.613V128.05H759.113Z" fill="#00A69D"/>
<path d="M788.344 128.05V91.55H794.344L805.494 122.8C805.427 121.967 805.344 120.95 805.244 119.75C805.177 118.517 805.11 117.233 805.044 115.9C805.01 114.533 804.994 113.25 804.994 112.05V91.55H809.344V128.05H803.344L792.244 96.8C792.31 97.6 792.377 98.6167 792.444 99.85C792.51 101.05 792.56 102.333 792.594 103.7C792.66 105.033 792.694 106.317 792.694 107.55V128.05H788.344Z" fill="#00A69D"/>
<path d="M816.324 128.05L825.824 91.55H831.874L841.324 128.05H836.774L834.374 118.35H823.324L820.924 128.05H816.324ZM824.224 114.55H833.424L830.624 103.3C830.091 101.167 829.674 99.3833 829.374 97.95C829.074 96.5167 828.891 95.5833 828.824 95.15C828.758 95.5833 828.574 96.5167 828.274 97.95C827.974 99.3833 827.558 101.15 827.024 103.25L824.224 114.55Z" fill="#00A69D"/>
<path d="M848.455 128.05V91.55H858.805C862.138 91.55 864.738 92.3833 866.605 94.05C868.505 95.7167 869.455 98.0333 869.455 101C869.455 102.667 869.105 104.117 868.405 105.35C867.705 106.583 866.705 107.533 865.405 108.2C864.138 108.867 862.605 109.183 860.805 109.15V108.4C862.738 108.367 864.405 108.733 865.805 109.5C867.238 110.267 868.338 111.367 869.105 112.8C869.905 114.233 870.305 115.933 870.305 117.9C870.305 119.967 869.871 121.767 869.005 123.3C868.138 124.833 866.905 126.017 865.305 126.85C863.705 127.65 861.788 128.05 859.555 128.05H848.455ZM852.855 124H859.055C861.155 124 862.805 123.45 864.005 122.35C865.238 121.217 865.855 119.683 865.855 117.75C865.855 115.75 865.238 114.133 864.005 112.9C862.805 111.633 861.155 111 859.055 111H852.855V124ZM852.855 107.1H858.755C860.688 107.1 862.205 106.583 863.305 105.55C864.438 104.517 865.005 103.117 865.005 101.35C865.005 99.5833 864.455 98.1833 863.355 97.15C862.255 96.1167 860.738 95.6 858.805 95.6H852.855V107.1Z" fill="#00A69D"/>
<path d="M879.535 128.05V91.55H884.035V123.95H900.535V128.05H879.535Z" fill="#00A69D"/>
<path d="M908.766 128.05V91.55H929.766V95.65H913.216V106.95H928.016V111H913.216V123.95H929.766V128.05H908.766Z" fill="#00A69D"/>
<path d="M968.477 128.05V91.5H989.977V95.6H972.877V107.75H988.677V111.85H972.977V128.05H968.477Z" fill="#00A69D"/>
<path d="M1008.71 128.55C1005.31 128.55 1002.71 127.617 1000.91 125.75C999.107 123.85 998.207 121.283 998.207 118.05V91.55H1002.71V118.05C1002.71 120.05 1003.19 121.633 1004.16 122.8C1005.16 123.967 1006.67 124.55 1008.71 124.55C1010.71 124.55 1012.21 123.967 1013.21 122.8C1014.21 121.633 1014.71 120.05 1014.71 118.05V91.55H1019.21V118.05C1019.21 121.317 1018.31 123.883 1016.51 125.75C1014.74 127.617 1012.14 128.55 1008.71 128.55Z" fill="#00A69D"/>
<path d="M1036.44 128.05V95.6H1026.44V91.5H1050.94V95.6H1040.94V128.05H1036.44Z" fill="#00A69D"/>
<path d="M1068.67 128.55C1065.27 128.55 1062.67 127.617 1060.87 125.75C1059.07 123.85 1058.17 121.283 1058.17 118.05V91.55H1062.67V118.05C1062.67 120.05 1063.15 121.633 1064.12 122.8C1065.12 123.967 1066.63 124.55 1068.67 124.55C1070.67 124.55 1072.17 123.967 1073.17 122.8C1074.17 121.633 1074.67 120.05 1074.67 118.05V91.55H1079.17V118.05C1079.17 121.317 1078.27 123.883 1076.47 125.75C1074.7 127.617 1072.1 128.55 1068.67 128.55Z" fill="#00A69D"/>
<path d="M1088.25 128.05V91.55H1099.55C1101.72 91.55 1103.62 92 1105.25 92.9C1106.88 93.7667 1108.15 94.9833 1109.05 96.55C1109.95 98.1167 1110.4 99.95 1110.4 102.05C1110.4 104.517 1109.75 106.633 1108.45 108.4C1107.18 110.167 1105.45 111.383 1103.25 112.05L1110.9 128.05H1105.6L1098.6 112.55H1092.75V128.05H1088.25ZM1092.75 108.5H1099.55C1101.42 108.5 1102.92 107.917 1104.05 106.75C1105.18 105.55 1105.75 103.983 1105.75 102.05C1105.75 100.083 1105.18 98.5167 1104.05 97.35C1102.92 96.1833 1101.42 95.6 1099.55 95.6H1092.75V108.5Z" fill="#00A69D"/>
<path d="M1118.63 128.05V91.55H1139.63V95.65H1123.08V106.95H1137.88V111H1123.08V123.95H1139.63V128.05H1118.63Z" fill="#00A69D"/>
<path fill-rule="evenodd" clip-rule="evenodd" d="M93 113C116.748 113 136 93.7482 136 70C136 46.2518 116.748 27 93 27C69.2518 27 50 46.2518 50 70C50 93.7482 69.2518 113 93 113ZM93 117C118.957 117 140 95.9574 140 70C140 44.0426 118.957 23 93 23C67.0426 23 46 44.0426 46 70C46 95.9574 67.0426 117 93 117Z" fill="#1928AA"/>
<path fill-rule="evenodd" clip-rule="evenodd" d="M47 113C70.7482 113 90 93.7482 90 70C90 46.2518 70.7482 27 47 27C23.2518 27 4 46.2518 4 70C4 93.7482 23.2518 113 47 113ZM47 117C72.9574 117 94 95.9574 94 70C94 44.0426 72.9574 23 47 23C21.0426 23 0 44.0426 0 70C0 95.9574 21.0426 117 47 117Z" fill="#1928AA"/>
<path fill-rule="evenodd" clip-rule="evenodd" d="M70 90C93.7482 90 113 70.7482 113 47C113 23.2518 93.7482 4 70 4C46.2518 4 27 23.2518 27 47C27 70.7482 46.2518 90 70 90ZM70 94C95.9574 94 117 72.9574 117 47C117 21.0426 95.9574 0 70 0C44.0426 0 23 21.0426 23 47C23 72.9574 44.0426 94 70 94Z" fill="#1928AA"/>
<path fill-rule="evenodd" clip-rule="evenodd" d="M70 136C93.7482 136 113 116.748 113 93C113 69.2518 93.7482 50 70 50C46.2518 50 27 69.2518 27 93C27 116.748 46.2518 136 70 136ZM70 140C95.9574 140 117 118.957 117 93C117 67.0426 95.9574 46 70 46C44.0426 46 23 67.0426 23 93C23 118.957 44.0426 140 70 140Z" fill="#1928AA"/>
<path d="M296.261 85C289.489 113.667 263.736 135 233 135C197.101 135 168 105.899 168 70C168 34.1015 197.101 5 233 5C264.092 5 290.086 26.8305 296.489 56H265.088C259.687 43.6387 247.352 35 233 35C213.67 35 198 50.67 198 70C198 89.33 213.67 105 233 105C246.962 105 259.015 96.8247 264.632 85H296.261Z" fill="#1928AA"/>
<path d="M319 7H349V133H319V7Z" fill="#1928AA"/>
<path d="M405 35H375V133H405H436C470.794 133 499 104.794 499 70C499 35.2061 470.794 7 436 7H405V35L436 35C455.33 35 471 50.6701 471 70C471 89.33 455.33 105 436 105L405 105V35Z" fill="#1928AA"/>
</g>
<defs>
<clipPath id="clip0_47_234">
<rect width="1142" height="140" fill="white"/>
</clipPath>
</defs>
</svg>
