<svg width="186" height="372" viewBox="0 0 186 372" fill="none" xmlns="http://www.w3.org/2000/svg">
<g clip-path="url(#clip0_62_837)">
<path d="M351.5 186.001C351.5 258.364 297.309 316.958 230.543 316.958C163.777 316.958 109.586 258.364 109.586 186.001C109.586 113.637 163.777 55.0435 230.543 55.0435C297.309 55.0435 351.5 113.637 351.5 186.001Z" stroke="#1928AA"/>
<path d="M242.414 186.001C242.414 258.364 188.223 316.958 121.457 316.958C54.6909 316.958 0.5 258.364 0.5 186.001C0.5 113.637 54.6909 55.0435 121.457 55.0435C188.223 55.0435 242.414 113.637 242.414 186.001Z" stroke="#1928AA"/>
<path d="M296.957 131.457C296.957 203.821 242.766 262.414 176 262.414C109.234 262.414 55.043 203.821 55.043 131.457C55.043 59.0935 109.234 0.5 176 0.5C242.766 0.5 296.957 59.0935 296.957 131.457Z" stroke="#1928AA"/>
<path d="M296.957 240.543C296.957 312.906 242.766 371.5 176 371.5C109.234 371.5 55.043 312.906 55.043 240.543C55.043 168.179 109.234 109.585 176 109.585C242.766 109.585 296.957 168.179 296.957 240.543Z" stroke="#1928AA"/>
</g>
<defs>
<clipPath id="clip0_62_837">
<rect width="186" height="372" fill="white"/>
</clipPath>
</defs>
</svg>
