<svg width="186" height="372" viewBox="0 0 186 372" fill="none" xmlns="http://www.w3.org/2000/svg">
<g clip-path="url(#clip0_62_822)">
<path d="M-165.5 186.001C-165.5 258.364 -111.309 316.958 -44.5431 316.958C22.2232 316.958 76.4141 258.364 76.4141 186.001C76.4141 113.637 22.2232 55.0435 -44.5431 55.0435C-111.309 55.0435 -165.5 113.637 -165.5 186.001Z" stroke="#1928AA"/>
<path d="M-56.4143 186.001C-56.4143 258.364 -2.2234 316.958 64.5429 316.958C131.309 316.958 185.5 258.364 185.5 186.001C185.5 113.637 131.309 55.0435 64.5429 55.0435C-2.2234 55.0435 -56.4143 113.637 -56.4143 186.001Z" stroke="#1928AA"/>
<path d="M-110.957 131.457C-110.957 203.821 -56.7664 262.414 9.99989 262.414C76.7662 262.414 130.957 203.821 130.957 131.457C130.957 59.0935 76.7662 0.5 9.99989 0.5C-56.7664 0.5 -110.957 59.0935 -110.957 131.457Z" stroke="#1928AA"/>
<path d="M-110.957 240.543C-110.957 312.906 -56.7664 371.5 9.99989 371.5C76.7662 371.5 130.957 312.906 130.957 240.543C130.957 168.179 76.7662 109.585 9.99989 109.585C-56.7664 109.585 -110.957 168.179 -110.957 240.543Z" stroke="#1928AA"/>
</g>
<defs>
<clipPath id="clip0_62_822">
<rect width="186" height="372" fill="white" transform="matrix(-1 0 0 1 186 0)"/>
</clipPath>
</defs>
</svg>
