<svg width="372" height="186" viewBox="0 0 372 186" fill="none" xmlns="http://www.w3.org/2000/svg">
<g clip-path="url(#clip0_83_1016)">
<path d="M186.001 351.5C258.364 351.5 316.958 297.309 316.958 230.543C316.958 163.777 258.364 109.586 186.001 109.586C113.637 109.586 55.0435 163.777 55.0435 230.543C55.0435 297.309 113.637 351.5 186.001 351.5Z" stroke="#1928AA"/>
<path d="M186.001 242.414C258.364 242.414 316.958 188.223 316.958 121.457C316.958 54.6909 258.364 0.5 186.001 0.5C113.637 0.5 55.0435 54.6909 55.0435 121.457C55.0435 188.223 113.637 242.414 186.001 242.414Z" stroke="#1928AA"/>
<path d="M131.457 296.957C203.821 296.957 262.414 242.766 262.414 176C262.414 109.234 203.821 55.043 131.457 55.043C59.0935 55.043 0.5 109.234 0.5 176C0.5 242.766 59.0935 296.957 131.457 296.957Z" stroke="#1928AA"/>
<path d="M240.543 296.957C312.906 296.957 371.5 242.766 371.5 176C371.5 109.234 312.906 55.043 240.543 55.043C168.179 55.043 109.585 109.234 109.585 176C109.585 242.766 168.179 296.957 240.543 296.957Z" stroke="#1928AA"/>
</g>
<defs>
<clipPath id="clip0_83_1016">
<rect width="186" height="372" fill="white" transform="matrix(0 1 1 0 0 0)"/>
</clipPath>
</defs>
</svg>
