<svg width="735" height="713" viewBox="0 0 735 713" fill="none" xmlns="http://www.w3.org/2000/svg">
<g clip-path="url(#clip0_20_310)">
<rect width="735" height="713" fill="#F5F8F5"/>
<g clip-path="url(#clip1_20_310)">
<circle cx="494.821" cy="356.5" r="259.679" stroke="#1928AA"/>
<circle cx="240.179" cy="356.5" r="259.679" stroke="#1928AA"/>
<circle cx="367.5" cy="229.179" r="259.679" stroke="#1928AA"/>
<circle cx="367.5" cy="483.821" r="259.679" stroke="#1928AA"/>
<path d="M345.561 365.769C341.572 382.528 326.4 395 308.293 395C287.144 395 270 377.987 270 357C270 336.013 287.144 319 308.293 319C326.61 319 341.923 331.762 345.696 348.815H327.197C324.015 341.589 316.748 336.538 308.293 336.538C296.905 336.538 287.674 345.699 287.674 357C287.674 368.301 296.905 377.462 308.293 377.462C316.518 377.462 323.619 372.682 326.928 365.769H345.561Z" fill="#1928AA"/>
<path d="M358.958 320.169H376.631V393.831H358.958V320.169Z" fill="#1928AA"/>
<path d="M409.622 336.538H391.949V393.831H409.622H427.885C448.383 393.831 465 377.341 465 357C465 336.659 448.383 320.169 427.885 320.169H409.622V336.538L427.885 336.538C439.273 336.538 448.505 345.699 448.505 357C448.505 368.301 439.273 377.462 427.885 377.462L409.622 377.462V336.538Z" fill="#1928AA"/>
</g>
<path d="M338.864 56.16C338.096 56.16 337.435 56.032 336.88 55.776C336.336 55.52 335.915 55.152 335.616 54.672C335.317 54.192 335.163 53.6213 335.152 52.96H336.592C336.592 53.5467 336.789 54.0107 337.184 54.352C337.589 54.6933 338.149 54.864 338.864 54.864C339.536 54.864 340.059 54.6987 340.432 54.368C340.816 54.0373 341.008 53.5787 341.008 52.992C341.008 52.5227 340.88 52.112 340.624 51.76C340.379 51.408 340.021 51.1627 339.552 51.024L337.968 50.528C337.168 50.2827 336.549 49.872 336.112 49.296C335.685 48.72 335.472 48.0427 335.472 47.264C335.472 46.6347 335.611 46.0907 335.888 45.632C336.176 45.1627 336.576 44.8 337.088 44.544C337.6 44.2773 338.203 44.144 338.896 44.144C339.92 44.144 340.741 44.432 341.36 45.008C341.979 45.5733 342.293 46.3307 342.304 47.28H340.864C340.864 46.704 340.688 46.256 340.336 45.936C339.995 45.6053 339.509 45.44 338.88 45.44C338.261 45.44 337.776 45.5893 337.424 45.888C337.083 46.1867 336.912 46.6027 336.912 47.136C336.912 47.616 337.04 48.032 337.296 48.384C337.552 48.736 337.92 48.9867 338.4 49.136L340 49.648C340.779 49.8933 341.381 50.3093 341.808 50.896C342.235 51.4827 342.448 52.1707 342.448 52.96C342.448 53.6 342.299 54.16 342 54.64C341.701 55.12 341.28 55.4933 340.736 55.76C340.203 56.0267 339.579 56.16 338.864 56.16ZM347.674 56V45.616H344.474V44.304H352.314V45.616H349.114V56H347.674ZM357.988 56.16C356.9 56.16 356.068 55.8613 355.492 55.264C354.916 54.656 354.628 53.8347 354.628 52.8V44.32H356.068V52.8C356.068 53.44 356.222 53.9467 356.532 54.32C356.852 54.6933 357.337 54.88 357.988 54.88C358.628 54.88 359.108 54.6933 359.428 54.32C359.748 53.9467 359.908 53.44 359.908 52.8V44.32H361.348V52.8C361.348 53.8453 361.06 54.6667 360.484 55.264C359.918 55.8613 359.086 56.16 357.988 56.16ZM364.253 56V44.32H367.277C368.035 44.32 368.685 44.464 369.229 44.752C369.784 45.04 370.211 45.4453 370.509 45.968C370.819 46.4907 370.973 47.1093 370.973 47.824V52.48C370.973 53.1947 370.819 53.8187 370.509 54.352C370.211 54.8747 369.784 55.28 369.229 55.568C368.685 55.856 368.035 56 367.277 56H364.253ZM365.693 54.72H367.277C367.981 54.72 368.531 54.5227 368.925 54.128C369.331 53.7333 369.533 53.184 369.533 52.48V47.824C369.533 47.1307 369.331 46.5867 368.925 46.192C368.531 45.7973 367.981 45.6 367.277 45.6H365.693V54.72ZM374.055 56V54.688H376.439V45.632H374.055V44.32H380.295V45.632H377.911V54.688H380.295V56H374.055ZM383.569 56V44.32H390.289V45.632H384.993V49.248H389.729V50.544H384.993V54.688H390.289V56H383.569ZM396.427 56.16C395.659 56.16 394.997 56.032 394.443 55.776C393.899 55.52 393.477 55.152 393.179 54.672C392.88 54.192 392.725 53.6213 392.715 52.96H394.155C394.155 53.5467 394.352 54.0107 394.747 54.352C395.152 54.6933 395.712 54.864 396.427 54.864C397.099 54.864 397.621 54.6987 397.995 54.368C398.379 54.0373 398.571 53.5787 398.571 52.992C398.571 52.5227 398.443 52.112 398.187 51.76C397.941 51.408 397.584 51.1627 397.115 51.024L395.531 50.528C394.731 50.2827 394.112 49.872 393.674 49.296C393.248 48.72 393.035 48.0427 393.035 47.264C393.035 46.6347 393.173 46.0907 393.451 45.632C393.739 45.1627 394.139 44.8 394.651 44.544C395.163 44.2773 395.765 44.144 396.459 44.144C397.483 44.144 398.304 44.432 398.923 45.008C399.541 45.5733 399.856 46.3307 399.867 47.28H398.427C398.427 46.704 398.251 46.256 397.899 45.936C397.557 45.6053 397.072 45.44 396.443 45.44C395.824 45.44 395.339 45.5893 394.987 45.888C394.645 46.1867 394.475 46.6027 394.475 47.136C394.475 47.616 394.603 48.032 394.859 48.384C395.115 48.736 395.483 48.9867 395.963 49.136L397.563 49.648C398.341 49.8933 398.944 50.3093 399.371 50.896C399.797 51.4827 400.01 52.1707 400.01 52.96C400.01 53.6 399.861 54.16 399.562 54.64C399.264 55.12 398.843 55.4933 398.299 55.76C397.765 56.0267 397.141 56.16 396.427 56.16Z" fill="#00867F"/>
<path d="M637.472 363V351.32H641.232C641.957 351.32 642.587 351.464 643.12 351.752C643.653 352.029 644.064 352.424 644.352 352.936C644.651 353.448 644.8 354.056 644.8 354.76C644.8 355.453 644.651 356.061 644.352 356.584C644.064 357.096 643.653 357.496 643.12 357.784C642.587 358.061 641.957 358.2 641.232 358.2H638.912V363H637.472ZM638.912 356.904H641.232C641.861 356.904 642.363 356.712 642.736 356.328C643.12 355.933 643.312 355.411 643.312 354.76C643.312 354.099 643.12 353.576 642.736 353.192C642.363 352.808 641.861 352.616 641.232 352.616H638.912V356.904ZM647.066 363V351.32H650.682C651.375 351.32 651.983 351.464 652.506 351.752C653.028 352.029 653.434 352.419 653.722 352.92C654.01 353.421 654.154 354.008 654.154 354.68C654.154 355.469 653.946 356.147 653.53 356.712C653.124 357.277 652.57 357.667 651.866 357.88L654.314 363H652.618L650.378 358.04H648.506V363H647.066ZM648.506 356.744H650.682C651.279 356.744 651.759 356.557 652.122 356.184C652.484 355.8 652.666 355.299 652.666 354.68C652.666 354.051 652.484 353.549 652.122 353.176C651.759 352.803 651.279 352.616 650.682 352.616H648.506V356.744ZM659.988 363.16C659.284 363.16 658.676 363.027 658.164 362.76C657.662 362.493 657.273 362.109 656.996 361.608C656.729 361.096 656.596 360.493 656.596 359.8V354.52C656.596 353.816 656.729 353.213 656.996 352.712C657.273 352.211 657.662 351.827 658.164 351.56C658.676 351.293 659.284 351.16 659.988 351.16C660.692 351.16 661.294 351.293 661.796 351.56C662.308 351.827 662.697 352.211 662.964 352.712C663.241 353.213 663.38 353.811 663.38 354.504V359.8C663.38 360.493 663.241 361.096 662.964 361.608C662.697 362.109 662.308 362.493 661.796 362.76C661.294 363.027 660.692 363.16 659.988 363.16ZM659.988 361.864C660.617 361.864 661.097 361.688 661.428 361.336C661.769 360.973 661.94 360.461 661.94 359.8V354.52C661.94 353.859 661.769 353.352 661.428 353C661.097 352.637 660.617 352.456 659.988 352.456C659.369 352.456 658.889 352.637 658.548 353C658.206 353.352 658.036 353.859 658.036 354.52V359.8C658.036 360.461 658.206 360.973 658.548 361.336C658.889 361.688 659.369 361.864 659.988 361.864ZM666.253 363V351.32H669.277C670.035 351.32 670.685 351.464 671.229 351.752C671.784 352.04 672.211 352.445 672.509 352.968C672.819 353.491 672.973 354.109 672.973 354.824V359.48C672.973 360.195 672.819 360.819 672.509 361.352C672.211 361.875 671.784 362.28 671.229 362.568C670.685 362.856 670.035 363 669.277 363H666.253ZM667.693 361.72H669.277C669.981 361.72 670.531 361.523 670.925 361.128C671.331 360.733 671.533 360.184 671.533 359.48V354.824C671.533 354.131 671.331 353.587 670.925 353.192C670.531 352.797 669.981 352.6 669.277 352.6H667.693V361.72ZM679.175 363.16C678.087 363.16 677.255 362.861 676.679 362.264C676.103 361.656 675.815 360.835 675.815 359.8V351.32H677.255V359.8C677.255 360.44 677.41 360.947 677.719 361.32C678.039 361.693 678.524 361.88 679.175 361.88C679.815 361.88 680.295 361.693 680.615 361.32C680.935 360.947 681.095 360.44 681.095 359.8V351.32H682.535V359.8C682.535 360.845 682.247 361.667 681.671 362.264C681.106 362.861 680.274 363.16 679.175 363.16ZM688.833 363.16C688.129 363.16 687.515 363.027 686.993 362.76C686.481 362.493 686.081 362.109 685.793 361.608C685.515 361.096 685.377 360.493 685.377 359.8V354.52C685.377 353.816 685.515 353.213 685.793 352.712C686.081 352.211 686.481 351.827 686.993 351.56C687.515 351.293 688.129 351.16 688.833 351.16C689.537 351.16 690.145 351.299 690.657 351.576C691.169 351.843 691.563 352.227 691.841 352.728C692.118 353.229 692.257 353.827 692.257 354.52H690.817C690.817 353.859 690.641 353.352 690.289 353C689.947 352.637 689.462 352.456 688.833 352.456C688.203 352.456 687.707 352.632 687.345 352.984C686.993 353.336 686.817 353.843 686.817 354.504V359.8C686.817 360.461 686.993 360.973 687.345 361.336C687.707 361.688 688.203 361.864 688.833 361.864C689.462 361.864 689.947 361.688 690.289 361.336C690.641 360.973 690.817 360.461 690.817 359.8H692.257C692.257 360.483 692.118 361.08 691.841 361.592C691.563 362.093 691.169 362.483 690.657 362.76C690.145 363.027 689.537 363.16 688.833 363.16ZM697.643 363V352.616H694.443V351.304H702.283V352.616H699.083V363H697.643ZM708.02 363.16C707.252 363.16 706.591 363.032 706.036 362.776C705.492 362.52 705.071 362.152 704.772 361.672C704.474 361.192 704.319 360.621 704.308 359.96H705.748C705.748 360.547 705.946 361.011 706.34 361.352C706.746 361.693 707.306 361.864 708.02 361.864C708.692 361.864 709.215 361.699 709.588 361.368C709.972 361.037 710.164 360.579 710.164 359.992C710.164 359.523 710.036 359.112 709.78 358.76C709.535 358.408 709.178 358.163 708.708 358.024L707.124 357.528C706.324 357.283 705.706 356.872 705.268 356.296C704.842 355.72 704.628 355.043 704.628 354.264C704.628 353.635 704.767 353.091 705.044 352.632C705.332 352.163 705.732 351.8 706.244 351.544C706.756 351.277 707.359 351.144 708.052 351.144C709.076 351.144 709.898 351.432 710.516 352.008C711.135 352.573 711.45 353.331 711.46 354.28H710.02C710.02 353.704 709.844 353.256 709.492 352.936C709.151 352.605 708.666 352.44 708.036 352.44C707.418 352.44 706.932 352.589 706.58 352.888C706.239 353.187 706.068 353.603 706.068 354.136C706.068 354.616 706.196 355.032 706.452 355.384C706.708 355.736 707.076 355.987 707.556 356.136L709.156 356.648C709.935 356.893 710.538 357.309 710.964 357.896C711.391 358.483 711.604 359.171 711.604 359.96C711.604 360.6 711.455 361.16 711.156 361.64C710.858 362.12 710.436 362.493 709.892 362.76C709.359 363.027 708.735 363.16 708.02 363.16Z" fill="#00867F"/>
<path d="M19.864 363.16C19.16 363.16 18.5467 363.027 18.024 362.76C17.512 362.493 17.112 362.109 16.824 361.608C16.5467 361.096 16.408 360.493 16.408 359.8V354.52C16.408 353.816 16.5467 353.213 16.824 352.712C17.112 352.211 17.512 351.827 18.024 351.56C18.5467 351.293 19.16 351.16 19.864 351.16C20.568 351.16 21.176 351.299 21.688 351.576C22.2 351.843 22.5947 352.227 22.872 352.728C23.1493 353.229 23.288 353.827 23.288 354.52H21.848C21.848 353.859 21.672 353.352 21.32 353C20.9787 352.637 20.4933 352.456 19.864 352.456C19.2347 352.456 18.7387 352.632 18.376 352.984C18.024 353.336 17.848 353.843 17.848 354.504V359.8C17.848 360.461 18.024 360.973 18.376 361.336C18.7387 361.688 19.2347 361.864 19.864 361.864C20.4933 361.864 20.9787 361.688 21.32 361.336C21.672 360.973 21.848 360.461 21.848 359.8H23.288C23.288 360.483 23.1493 361.08 22.872 361.592C22.5947 362.093 22.2 362.483 21.688 362.76C21.176 363.027 20.568 363.16 19.864 363.16ZM29.3938 363.16C28.6898 363.16 28.0818 363.027 27.5698 362.76C27.0684 362.493 26.6791 362.109 26.4018 361.608C26.1351 361.096 26.0018 360.493 26.0018 359.8V354.52C26.0018 353.816 26.1351 353.213 26.4018 352.712C26.6791 352.211 27.0684 351.827 27.5698 351.56C28.0818 351.293 28.6898 351.16 29.3938 351.16C30.0978 351.16 30.7004 351.293 31.2018 351.56C31.7138 351.827 32.1031 352.211 32.3698 352.712C32.6471 353.213 32.7858 353.811 32.7858 354.504V359.8C32.7858 360.493 32.6471 361.096 32.3698 361.608C32.1031 362.109 31.7138 362.493 31.2018 362.76C30.7004 363.027 30.0978 363.16 29.3938 363.16ZM29.3938 361.864C30.0231 361.864 30.5031 361.688 30.8338 361.336C31.1751 360.973 31.3458 360.461 31.3458 359.8V354.52C31.3458 353.859 31.1751 353.352 30.8338 353C30.5031 352.637 30.0231 352.456 29.3938 352.456C28.7751 352.456 28.2951 352.637 27.9538 353C27.6124 353.352 27.4418 353.859 27.4418 354.52V359.8C27.4418 360.461 27.6124 360.973 27.9538 361.336C28.2951 361.688 28.7751 361.864 29.3938 361.864ZM35.6275 363V351.32H37.5475L41.1155 361.32C41.0942 361.053 41.0675 360.728 41.0355 360.344C41.0142 359.949 40.9928 359.539 40.9715 359.112C40.9608 358.675 40.9555 358.264 40.9555 357.88V351.32H42.3475V363H40.4275L36.8755 353C36.8968 353.256 36.9182 353.581 36.9395 353.976C36.9608 354.36 36.9768 354.771 36.9875 355.208C37.0088 355.635 37.0195 356.045 37.0195 356.44V363H35.6275ZM48.6453 363.16C47.8773 363.16 47.2159 363.032 46.6613 362.776C46.1173 362.52 45.6959 362.152 45.3973 361.672C45.0986 361.192 44.9439 360.621 44.9333 359.96H46.3733C46.3733 360.547 46.5706 361.011 46.9653 361.352C47.3706 361.693 47.9306 361.864 48.6453 361.864C49.3173 361.864 49.8399 361.699 50.2133 361.368C50.5973 361.037 50.7893 360.579 50.7893 359.992C50.7893 359.523 50.6613 359.112 50.4053 358.76C50.1599 358.408 49.8026 358.163 49.3333 358.024L47.7493 357.528C46.9493 357.283 46.3306 356.872 45.8932 356.296C45.4666 355.72 45.2533 355.043 45.2533 354.264C45.2533 353.635 45.3919 353.091 45.6693 352.632C45.9573 352.163 46.3573 351.8 46.8693 351.544C47.3813 351.277 47.9839 351.144 48.6773 351.144C49.7013 351.144 50.5226 351.432 51.1413 352.008C51.7599 352.573 52.0746 353.331 52.0853 354.28H50.6453C50.6453 353.704 50.4693 353.256 50.1173 352.936C49.7759 352.605 49.2906 352.44 48.6613 352.44C48.0426 352.44 47.5573 352.589 47.2053 352.888C46.8639 353.187 46.6933 353.603 46.6933 354.136C46.6933 354.616 46.8213 355.032 47.0773 355.384C47.3333 355.736 47.7013 355.987 48.1813 356.136L49.7813 356.648C50.5599 356.893 51.1626 357.309 51.5893 357.896C52.0159 358.483 52.2292 359.171 52.2292 359.96C52.2292 360.6 52.0799 361.16 51.7812 361.64C51.4826 362.12 51.0613 362.493 50.5173 362.76C49.9839 363.027 49.3599 363.16 48.6453 363.16ZM58.175 363.16C57.087 363.16 56.255 362.861 55.679 362.264C55.103 361.656 54.815 360.835 54.815 359.8V351.32H56.255V359.8C56.255 360.44 56.4097 360.947 56.719 361.32C57.039 361.693 57.5243 361.88 58.175 361.88C58.815 361.88 59.295 361.693 59.615 361.32C59.935 360.947 60.095 360.44 60.095 359.8V351.32H61.535V359.8C61.535 360.845 61.247 361.667 60.671 362.264C60.1057 362.861 59.2737 363.16 58.175 363.16ZM64.8088 363V351.32H66.2488V361.688H71.5288V363H64.8088ZM76.6425 363V352.616H73.4425V351.304H81.2825V352.616H78.0825V363H76.6425ZM83.8363 363V361.688H86.2203V352.632H83.8363V351.32H90.0763V352.632H87.6923V361.688H90.0763V363H83.8363ZM93.19 363V351.32H95.11L98.678 361.32C98.6567 361.053 98.63 360.728 98.598 360.344C98.5767 359.949 98.5553 359.539 98.534 359.112C98.5233 358.675 98.518 358.264 98.518 357.88V351.32H99.91V363H97.99L94.438 353C94.4593 353.256 94.4807 353.581 94.502 353.976C94.5233 354.36 94.5393 354.771 94.55 355.208C94.5713 355.635 94.582 356.045 94.582 356.44V363H93.19ZM106.208 363.16C105.504 363.16 104.89 363.027 104.368 362.76C103.856 362.493 103.456 362.109 103.168 361.608C102.89 361.096 102.752 360.493 102.752 359.8V354.52C102.752 353.816 102.89 353.213 103.168 352.712C103.456 352.211 103.856 351.827 104.368 351.56C104.89 351.293 105.504 351.16 106.208 351.16C106.912 351.16 107.52 351.299 108.032 351.576C108.544 351.843 108.938 352.227 109.216 352.728C109.493 353.229 109.632 353.827 109.632 354.52H108.192C108.192 353.859 108.016 353.352 107.664 353C107.322 352.637 106.837 352.456 106.208 352.456C105.578 352.456 105.082 352.632 104.72 352.984C104.368 353.336 104.192 353.843 104.192 354.504V359.8C104.192 360.461 104.368 360.973 104.72 361.336C105.082 361.699 105.578 361.88 106.208 361.88C106.837 361.88 107.322 361.699 107.664 361.336C108.016 360.973 108.192 360.461 108.192 359.8V358.36H105.824V357.048H109.632V359.8C109.632 360.483 109.493 361.08 109.216 361.592C108.938 362.093 108.544 362.483 108.032 362.76C107.52 363.027 106.912 363.16 106.208 363.16Z" fill="#00867F"/>
<path d="M290.08 669V658.616H286.88V657.304H294.72V658.616H291.52V669H290.08ZM297.194 669V657.32H303.914V658.632H298.618V662.248H303.354V663.544H298.618V667.688H303.914V669H297.194ZM310.052 669.16C309.348 669.16 308.734 669.027 308.212 668.76C307.7 668.493 307.3 668.109 307.012 667.608C306.734 667.096 306.596 666.493 306.596 665.8V660.52C306.596 659.816 306.734 659.213 307.012 658.712C307.3 658.211 307.7 657.827 308.212 657.56C308.734 657.293 309.348 657.16 310.052 657.16C310.756 657.16 311.364 657.299 311.876 657.576C312.388 657.843 312.782 658.227 313.06 658.728C313.337 659.229 313.476 659.827 313.476 660.52H312.036C312.036 659.859 311.86 659.352 311.508 659C311.166 658.637 310.681 658.456 310.052 658.456C309.422 658.456 308.926 658.632 308.564 658.984C308.212 659.336 308.036 659.843 308.036 660.504V665.8C308.036 666.461 308.212 666.973 308.564 667.336C308.926 667.688 309.422 667.864 310.052 667.864C310.681 667.864 311.166 667.688 311.508 667.336C311.86 666.973 312.036 666.461 312.036 665.8H313.476C313.476 666.483 313.337 667.08 313.06 667.592C312.782 668.093 312.388 668.483 311.876 668.76C311.364 669.027 310.756 669.16 310.052 669.16ZM316.269 669V657.32H317.709V662.312H321.453V657.32H322.893V669H321.453V663.624H317.709V669H316.269ZM325.815 669V657.32H327.735L331.303 667.32C331.282 667.053 331.255 666.728 331.223 666.344C331.202 665.949 331.18 665.539 331.159 665.112C331.148 664.675 331.143 664.264 331.143 663.88V657.32H332.535V669H330.615L327.063 659C327.084 659.256 327.106 659.581 327.127 659.976C327.148 660.36 327.164 660.771 327.175 661.208C327.196 661.635 327.207 662.045 327.207 662.44V669H325.815ZM335.649 669V667.688H338.033V658.632H335.649V657.32H341.889V658.632H339.505V667.688H341.889V669H335.649ZM348.427 669.16C347.723 669.16 347.109 669.027 346.587 668.76C346.075 668.493 345.675 668.109 345.387 667.608C345.109 667.096 344.971 666.493 344.971 665.8V660.52C344.971 659.816 345.109 659.213 345.387 658.712C345.675 658.211 346.075 657.827 346.587 657.56C347.109 657.293 347.723 657.16 348.427 657.16C349.131 657.16 349.739 657.299 350.251 657.576C350.763 657.843 351.157 658.227 351.435 658.728C351.712 659.229 351.851 659.827 351.851 660.52H350.411C350.411 659.859 350.235 659.352 349.883 659C349.541 658.637 349.056 658.456 348.427 658.456C347.797 658.456 347.301 658.632 346.939 658.984C346.587 659.336 346.411 659.843 346.411 660.504V665.8C346.411 666.461 346.587 666.973 346.939 667.336C347.301 667.688 347.797 667.864 348.427 667.864C349.056 667.864 349.541 667.688 349.883 667.336C350.235 666.973 350.411 666.461 350.411 665.8H351.851C351.851 666.483 351.712 667.08 351.435 667.592C351.157 668.093 350.763 668.483 350.251 668.76C349.739 669.027 349.131 669.16 348.427 669.16ZM353.956 669L356.996 657.32H358.932L361.956 669H360.5L359.732 665.896H356.196L355.428 669H353.956ZM356.484 664.68H359.428L358.532 661.08C358.362 660.397 358.228 659.827 358.132 659.368C358.036 658.909 357.978 658.611 357.956 658.472C357.935 658.611 357.876 658.909 357.78 659.368C357.684 659.827 357.551 660.392 357.38 661.064L356.484 664.68ZM364.59 669V657.32H366.03V667.688H371.31V669H364.59ZM386.802 669.16C386.034 669.16 385.372 669.032 384.818 668.776C384.274 668.52 383.852 668.152 383.554 667.672C383.255 667.192 383.1 666.621 383.09 665.96H384.53C384.53 666.547 384.727 667.011 385.122 667.352C385.527 667.693 386.087 667.864 386.802 667.864C387.474 667.864 387.996 667.699 388.37 667.368C388.754 667.037 388.946 666.579 388.946 665.992C388.946 665.523 388.818 665.112 388.562 664.76C388.316 664.408 387.959 664.163 387.49 664.024L385.906 663.528C385.106 663.283 384.487 662.872 384.049 662.296C383.623 661.72 383.41 661.043 383.41 660.264C383.41 659.635 383.548 659.091 383.826 658.632C384.114 658.163 384.514 657.8 385.026 657.544C385.538 657.277 386.14 657.144 386.834 657.144C387.858 657.144 388.679 657.432 389.298 658.008C389.916 658.573 390.231 659.331 390.242 660.28H388.802C388.802 659.704 388.626 659.256 388.274 658.936C387.932 658.605 387.447 658.44 386.818 658.44C386.199 658.44 385.714 658.589 385.362 658.888C385.02 659.187 384.85 659.603 384.85 660.136C384.85 660.616 384.978 661.032 385.234 661.384C385.49 661.736 385.858 661.987 386.338 662.136L387.938 662.648C388.716 662.893 389.319 663.309 389.746 663.896C390.172 664.483 390.385 665.171 390.385 665.96C390.385 666.6 390.236 667.16 389.938 667.64C389.639 668.12 389.218 668.493 388.674 668.76C388.14 669.027 387.516 669.16 386.802 669.16ZM396.331 669.16C395.243 669.16 394.411 668.861 393.835 668.264C393.259 667.656 392.971 666.835 392.971 665.8V657.32H394.411V665.8C394.411 666.44 394.566 666.947 394.875 667.32C395.195 667.693 395.681 667.88 396.331 667.88C396.971 667.88 397.451 667.693 397.771 667.32C398.091 666.947 398.251 666.44 398.251 665.8V657.32H399.691V665.8C399.691 666.845 399.403 667.667 398.827 668.264C398.262 668.861 397.43 669.16 396.331 669.16ZM402.597 669V657.32H406.357C407.082 657.32 407.712 657.464 408.245 657.752C408.778 658.029 409.189 658.424 409.477 658.936C409.776 659.448 409.925 660.056 409.925 660.76C409.925 661.453 409.776 662.061 409.477 662.584C409.189 663.096 408.778 663.496 408.245 663.784C407.712 664.061 407.082 664.2 406.357 664.2H404.037V669H402.597ZM404.037 662.904H406.357C406.986 662.904 407.488 662.712 407.861 662.328C408.245 661.933 408.437 661.411 408.437 660.76C408.437 660.099 408.245 659.576 407.861 659.192C407.488 658.808 406.986 658.616 406.357 658.616H404.037V662.904ZM412.191 669V657.32H415.951C416.676 657.32 417.305 657.464 417.839 657.752C418.372 658.029 418.783 658.424 419.071 658.936C419.369 659.448 419.519 660.056 419.519 660.76C419.519 661.453 419.369 662.061 419.071 662.584C418.783 663.096 418.372 663.496 417.839 663.784C417.305 664.061 416.676 664.2 415.951 664.2H413.631V669H412.191ZM413.631 662.904H415.951C416.58 662.904 417.081 662.712 417.455 662.328C417.839 661.933 418.031 661.411 418.031 660.76C418.031 660.099 417.839 659.576 417.455 659.192C417.081 658.808 416.58 658.616 415.951 658.616H413.631V662.904ZM425.113 669.16C424.409 669.16 423.801 669.027 423.289 668.76C422.787 668.493 422.398 668.109 422.121 667.608C421.854 667.096 421.721 666.493 421.721 665.8V660.52C421.721 659.816 421.854 659.213 422.121 658.712C422.398 658.211 422.787 657.827 423.289 657.56C423.801 657.293 424.409 657.16 425.113 657.16C425.817 657.16 426.419 657.293 426.921 657.56C427.433 657.827 427.822 658.211 428.089 658.712C428.366 659.213 428.505 659.811 428.505 660.504V665.8C428.505 666.493 428.366 667.096 428.089 667.608C427.822 668.109 427.433 668.493 426.921 668.76C426.419 669.027 425.817 669.16 425.113 669.16ZM425.113 667.864C425.742 667.864 426.222 667.688 426.553 667.336C426.894 666.973 427.065 666.461 427.065 665.8V660.52C427.065 659.859 426.894 659.352 426.553 659C426.222 658.637 425.742 658.456 425.113 658.456C424.494 658.456 424.014 658.637 423.673 659C423.331 659.352 423.161 659.859 423.161 660.52V665.8C423.161 666.461 423.331 666.973 423.673 667.336C424.014 667.688 424.494 667.864 425.113 667.864ZM431.378 669V657.32H434.994C435.688 657.32 436.296 657.464 436.818 657.752C437.341 658.029 437.746 658.419 438.034 658.92C438.322 659.421 438.466 660.008 438.466 660.68C438.466 661.469 438.258 662.147 437.842 662.712C437.437 663.277 436.882 663.667 436.178 663.88L438.626 669H436.93L434.69 664.04H432.818V669H431.378ZM432.818 662.744H434.994C435.592 662.744 436.072 662.557 436.434 662.184C436.797 661.8 436.978 661.299 436.978 660.68C436.978 660.051 436.797 659.549 436.434 659.176C436.072 658.803 435.592 658.616 434.994 658.616H432.818V662.744ZM443.58 669V658.616H440.38V657.304H448.22V658.616H445.02V669H443.58Z" fill="#00867F"/>
</g>
<defs>
<clipPath id="clip0_20_310">
<rect width="735" height="713" fill="white"/>
</clipPath>
<clipPath id="clip1_20_310">
<rect width="775" height="775" fill="white" transform="translate(-20 -31)"/>
</clipPath>
</defs>
</svg>
