<svg width="1470" height="203" viewBox="0 0 1470 203" fill="none" xmlns="http://www.w3.org/2000/svg">
<mask id="path-1-inside-1_250_1644" fill="white">
<path d="M0 0H1470V203H0V0Z"/>
</mask>
<path d="M0 0H1470V203H0V0Z" fill="white"/>
<path d="M1470 202H0V204H1470V202Z" fill="#1928AA" mask="url(#path-1-inside-1_250_1644)"/>
<path d="M93.5539 106.769C90.9188 117.795 80.8972 126 68.9367 126C54.9671 126 43.6426 114.807 43.6426 101C43.6426 87.1929 54.9671 76 68.9367 76C81.0359 76 91.1509 84.3964 93.6426 95.6154H81.4233C79.3216 90.861 74.5217 87.5385 68.9367 87.5385C61.4146 87.5385 55.3168 93.5654 55.3168 101C55.3168 108.435 61.4146 114.462 68.9367 114.462C74.3698 114.462 79.06 111.317 81.2459 106.769H93.5539Z" fill="#1928AA"/>
<path d="M99.8378 124V77.5987H109.372V89.0401L109.054 95.7143H111.851L109.054 97.939C109.054 94.9727 109.902 92.642 111.597 90.947C113.292 89.252 115.58 88.4045 118.462 88.4045C121.852 88.4045 124.564 89.591 126.598 91.964C128.674 94.3371 129.713 97.4941 129.713 101.435V124H120.178V102.388C120.178 100.566 119.691 99.1679 118.716 98.1933C117.784 97.1762 116.449 96.6677 114.712 96.6677C113.017 96.6677 111.703 97.1762 110.771 98.1933C109.838 99.1679 109.372 100.566 109.372 102.388V124H99.8378ZM154.16 124.636C151.066 124.636 148.354 124.064 146.024 122.919C143.735 121.733 141.955 120.101 140.684 118.025C139.455 115.906 138.841 113.448 138.841 110.652V102.388C138.841 99.5916 139.455 97.155 140.684 95.0786C141.955 92.9599 143.735 91.3284 146.024 90.1843C148.354 88.9977 151.066 88.4045 154.16 88.4045C157.253 88.4045 159.923 88.9977 162.169 90.1843C164.457 91.3284 166.216 92.9599 167.444 95.0786C168.716 97.155 169.351 99.5916 169.351 102.388V108.745H147.93V110.652C147.93 112.855 148.46 114.529 149.52 115.673C150.579 116.775 152.168 117.326 154.287 117.326C155.77 117.326 156.956 117.072 157.846 116.563C158.779 116.055 159.393 115.355 159.69 114.465H169.033C168.271 117.517 166.533 119.974 163.821 121.839C161.152 123.703 157.931 124.636 154.16 124.636ZM160.262 103.85V102.261C160.262 100.1 159.753 98.4475 158.736 97.3034C157.762 96.1592 156.236 95.5872 154.16 95.5872C152.083 95.5872 150.515 96.1804 149.456 97.3669C148.439 98.5534 147.93 100.227 147.93 102.388V103.342L160.897 103.215L160.262 103.85ZM177.081 124V89.0401H184.582V94.1252H186.107L184.9 95.0151C184.9 93.0234 185.472 91.4343 186.616 90.2478C187.76 89.0189 189.179 88.4045 190.874 88.4045C192.697 88.4045 194.116 89.1884 195.133 90.7563C196.15 92.3242 196.659 94.4006 196.659 96.9855L195.515 94.1252H197.294L196.722 95.0151C196.722 93.0234 197.273 91.4343 198.375 90.2478C199.477 89.0189 200.96 88.4045 202.824 88.4045C204.943 88.4045 206.659 89.2096 207.973 90.8199C209.287 92.3878 209.944 94.5489 209.944 97.3034V124H201.744V97.939C201.744 96.9644 201.532 96.2228 201.108 95.7143C200.684 95.1634 200.07 94.888 199.265 94.888C198.46 94.888 197.845 95.1634 197.422 95.7143C196.998 96.2228 196.786 96.9644 196.786 97.939V124H190.239V97.939C190.239 96.9644 190.027 96.2228 189.603 95.7143C189.179 95.1634 188.565 94.888 187.76 94.888C186.955 94.888 186.34 95.1634 185.917 95.7143C185.493 96.2228 185.281 96.9644 185.281 97.939V124H177.081ZM218.245 124V115.355H230.323V97.6212H219.835V89.0401H239.221V115.355H249.392V124H218.245ZM234.136 83.5101C232.399 83.5101 231.001 83.0652 229.941 82.1753C228.924 81.2854 228.416 80.0777 228.416 78.5522C228.416 77.0266 228.924 75.8189 229.941 74.929C231.001 74.0392 232.399 73.5942 234.136 73.5942C235.874 73.5942 237.251 74.0392 238.268 74.929C239.327 75.8189 239.857 77.0266 239.857 78.5522C239.857 80.0777 239.327 81.2854 238.268 82.1753C237.251 83.0652 235.874 83.5101 234.136 83.5101ZM272.44 124.636C269.347 124.636 266.635 124.064 264.304 122.919C261.973 121.733 260.173 120.101 258.901 118.025C257.63 115.906 256.994 113.448 256.994 110.652V102.388C256.994 99.5493 257.63 97.0915 258.901 95.0151C260.173 92.9387 261.973 91.3284 264.304 90.1843C266.635 88.9977 269.347 88.4045 272.44 88.4045C277.059 88.4045 280.746 89.5698 283.5 91.9005C286.255 94.2311 287.717 97.4093 287.886 101.435H278.352C278.225 99.9518 277.631 98.7865 276.572 97.939C275.555 97.0915 274.178 96.6677 272.44 96.6677C270.533 96.6677 269.071 97.1551 268.054 98.1297C267.037 99.1043 266.529 100.524 266.529 102.388V110.652C266.529 112.474 267.037 113.893 268.054 114.91C269.071 115.885 270.533 116.372 272.44 116.372C274.178 116.372 275.555 115.97 276.572 115.165C277.631 114.317 278.225 113.131 278.352 111.605H287.886C287.717 115.631 286.255 118.809 283.5 121.14C280.746 123.47 277.059 124.636 272.44 124.636ZM307.121 124.636C303.604 124.636 300.807 123.682 298.731 121.775C296.697 119.868 295.68 117.283 295.68 114.021C295.68 110.503 296.887 107.813 299.303 105.948C301.761 104.041 305.278 103.088 309.854 103.088H317.1V100.482C317.1 99.1255 316.613 98.0449 315.639 97.2398C314.706 96.4347 313.435 96.0321 311.825 96.0321C310.342 96.0321 309.113 96.3711 308.138 97.0491C307.163 97.7271 306.57 98.6594 306.358 99.8459H297.142C297.523 96.3287 299.048 93.5531 301.718 91.5191C304.43 89.4427 307.905 88.4045 312.143 88.4045C316.592 88.4045 320.109 89.5063 322.694 91.7098C325.321 93.8709 326.635 96.7949 326.635 100.482V124H317.418V118.279H315.893L317.482 116.055C317.482 118.682 316.528 120.779 314.622 122.347C312.757 123.873 310.257 124.636 307.121 124.636ZM310.681 117.644C312.545 117.644 314.071 117.156 315.257 116.182C316.486 115.165 317.1 113.851 317.1 112.241V108.491H310.045C308.604 108.491 307.439 108.914 306.549 109.762C305.659 110.567 305.214 111.648 305.214 113.004C305.214 114.444 305.701 115.588 306.676 116.436C307.651 117.241 308.986 117.644 310.681 117.644ZM356.739 124C354.281 124 352.12 123.491 350.256 122.474C348.391 121.415 346.929 119.953 345.87 118.089C344.853 116.224 344.344 114.063 344.344 111.605V86.1798H333.539V77.5987H353.879V111.605C353.879 112.749 354.218 113.682 354.896 114.402C355.616 115.08 356.549 115.419 357.693 115.419H367.863V124H356.739Z" fill="#1928AA"/>
<path d="M410.021 74.0645H423.213V124.435H410.021V74.0645Z" fill="#1928AA"/>
<path d="M435.803 124V89.0401H445.02V95.7143H447.817L445.02 97.939C445.02 94.9727 445.867 92.642 447.562 90.947C449.257 89.252 451.546 88.4045 454.427 88.4045C457.817 88.4045 460.529 89.591 462.563 91.964C464.64 94.3371 465.678 97.4941 465.678 101.435V124H456.143V102.388C456.143 100.566 455.656 99.1679 454.681 98.1933C453.749 97.1762 452.414 96.6677 450.677 96.6677C448.982 96.6677 447.668 97.1762 446.736 98.1933C445.804 99.1679 445.338 100.566 445.338 102.388V124H435.803ZM483.387 124V101.753H474.107V93.1717H483.387V88.4045C483.387 85.1416 484.489 82.5355 486.693 80.5862C488.938 78.5945 491.862 77.5987 495.464 77.5987H505.698V85.8619H495.782C494.935 85.8619 494.235 86.1374 493.685 86.6883C493.176 87.1968 492.922 87.8748 492.922 88.7223V93.1717H505.698V101.753H492.922V124H483.387ZM515.589 124V89.0401H524.488V95.7143H526.903L524.17 99.7823C524.17 96.0109 525.039 93.1717 526.776 91.2648C528.514 89.3579 531.056 88.4045 534.404 88.4045C538.26 88.4045 541.248 89.5698 543.366 91.9005C545.527 94.2311 546.608 97.5152 546.608 101.753V104.613H536.438V102.388C536.438 100.482 535.908 98.9984 534.849 97.939C533.832 96.8796 532.455 96.3499 530.717 96.3499C528.895 96.3499 527.497 96.8796 526.522 97.939C525.59 98.9984 525.124 100.482 525.124 102.388V124H515.589ZM564.317 124.636C560.8 124.636 558.003 123.682 555.927 121.775C553.893 119.868 552.876 117.283 552.876 114.021C552.876 110.503 554.084 107.813 556.499 105.948C558.957 104.041 562.474 103.088 567.051 103.088H574.297V100.482C574.297 99.1255 573.81 98.0449 572.835 97.2398C571.903 96.4347 570.631 96.0321 569.021 96.0321C567.538 96.0321 566.309 96.3711 565.334 97.0491C564.36 97.7271 563.767 98.6594 563.555 99.8459H554.338C554.719 96.3287 556.245 93.5531 558.915 91.5191C561.627 89.4427 565.101 88.4045 569.339 88.4045C573.788 88.4045 577.306 89.5063 579.89 91.7098C582.518 93.8709 583.831 96.7949 583.831 100.482V124H574.615V118.279H573.089L574.678 116.055C574.678 118.682 573.725 120.779 571.818 122.347C569.953 123.873 567.453 124.636 564.317 124.636ZM567.877 117.644C569.741 117.644 571.267 117.156 572.454 116.182C573.682 115.165 574.297 113.851 574.297 112.241V108.491H567.241C565.801 108.491 564.635 108.914 563.745 109.762C562.855 110.567 562.41 111.648 562.41 113.004C562.41 114.444 562.898 115.588 563.872 116.436C564.847 117.241 566.182 117.644 567.877 117.644ZM606.753 124.636C603.871 124.636 601.35 124.191 599.189 123.301C597.028 122.369 595.333 121.097 594.104 119.487C592.917 117.877 592.324 115.991 592.324 113.83H601.859C601.859 114.847 602.303 115.673 603.193 116.309C604.126 116.902 605.312 117.199 606.753 117.199H609.55C611.287 117.199 612.601 116.881 613.491 116.245C614.423 115.61 614.889 114.72 614.889 113.576C614.889 112.516 614.486 111.711 613.681 111.16C612.876 110.567 611.626 110.164 609.931 109.952L605.863 109.444C601.498 108.893 598.32 107.834 596.329 106.266C594.337 104.698 593.341 102.304 593.341 99.0831C593.341 95.6931 594.506 93.0658 596.837 91.2013C599.168 89.3367 602.579 88.4045 607.071 88.4045H609.486C613.766 88.4045 617.177 89.3367 619.72 91.2013C622.262 93.0658 623.534 95.566 623.534 98.7018H613.999C613.999 97.8542 613.575 97.1762 612.728 96.6677C611.923 96.1168 610.842 95.8414 609.486 95.8414H607.071C605.503 95.8414 604.359 96.1168 603.638 96.6677C602.918 97.1762 602.558 97.9602 602.558 99.0196C602.558 99.9942 602.876 100.736 603.511 101.244C604.189 101.753 605.249 102.113 606.689 102.325L611.075 102.897C615.482 103.448 618.745 104.55 620.864 106.202C623.025 107.855 624.106 110.313 624.106 113.576C624.106 117.135 622.877 119.868 620.419 121.775C617.961 123.682 614.338 124.636 609.55 124.636H606.753ZM651.413 124C647.854 124 645.057 122.983 643.023 120.949C640.989 118.915 639.972 116.118 639.972 112.559V97.6212H630.755V89.0401H639.972V79.1878H649.506V89.0401H662.537V97.6212H649.506V112.559C649.506 114.465 650.46 115.419 652.367 115.419H661.901V124H651.413ZM673.127 124V89.0401H682.026V95.7143H684.441L681.708 99.7823C681.708 96.0109 682.577 93.1717 684.314 91.2648C686.052 89.3579 688.594 88.4045 691.942 88.4045C695.798 88.4045 698.785 89.5698 700.904 91.9005C703.065 94.2311 704.146 97.5152 704.146 101.753V104.613H693.976V102.388C693.976 100.482 693.446 98.9984 692.387 97.939C691.37 96.8796 689.993 96.3499 688.255 96.3499C686.433 96.3499 685.035 96.8796 684.06 97.939C683.128 98.9984 682.662 100.482 682.662 102.388V124H673.127ZM726.368 124.636C721.665 124.636 717.978 123.364 715.308 120.822C712.681 118.279 711.367 114.804 711.367 110.397V89.0401H720.902V110.334C720.902 112.283 721.368 113.787 722.3 114.847C723.233 115.864 724.589 116.372 726.368 116.372C728.106 116.372 729.441 115.864 730.373 114.847C731.347 113.787 731.835 112.283 731.835 110.334V89.0401H741.369V110.397C741.369 114.847 740.034 118.343 737.365 120.885C734.695 123.386 731.03 124.636 726.368 124.636ZM765.944 124.636C762.85 124.636 760.138 124.064 757.807 122.919C755.477 121.733 753.676 120.101 752.405 118.025C751.133 115.906 750.498 113.448 750.498 110.652V102.388C750.498 99.5493 751.133 97.0915 752.405 95.0151C753.676 92.9387 755.477 91.3284 757.807 90.1843C760.138 88.9977 762.85 88.4045 765.944 88.4045C770.562 88.4045 774.249 89.5698 777.004 91.9005C779.758 94.2311 781.22 97.4093 781.389 101.435H771.855C771.728 99.9518 771.135 98.7865 770.075 97.939C769.058 97.0915 767.681 96.6677 765.944 96.6677C764.037 96.6677 762.575 97.1551 761.558 98.1297C760.541 99.1043 760.032 100.524 760.032 102.388V110.652C760.032 112.474 760.541 113.893 761.558 114.91C762.575 115.885 764.037 116.372 765.944 116.372C767.681 116.372 769.058 115.97 770.075 115.165C771.135 114.317 771.728 113.131 771.855 111.605H781.389C781.22 115.631 779.758 118.809 777.004 121.14C774.249 123.47 770.562 124.636 765.944 124.636ZM808.951 124C805.392 124 802.595 122.983 800.561 120.949C798.527 118.915 797.51 116.118 797.51 112.559V97.6212H788.293V89.0401H797.51V79.1878H807.044V89.0401H820.075V97.6212H807.044V112.559C807.044 114.465 807.998 115.419 809.905 115.419H819.439V124H808.951ZM844.522 124.636C839.818 124.636 836.131 123.364 833.462 120.822C830.834 118.279 829.521 114.804 829.521 110.397V89.0401H839.055V110.334C839.055 112.283 839.521 113.787 840.454 114.847C841.386 115.864 842.742 116.372 844.522 116.372C846.259 116.372 847.594 115.864 848.526 114.847C849.501 113.787 849.988 112.283 849.988 110.334V89.0401H859.523V110.397C859.523 114.847 858.188 118.343 855.518 120.885C852.849 123.386 849.183 124.636 844.522 124.636ZM870.049 124V89.0401H878.948V95.7143H881.364L878.631 99.7823C878.631 96.0109 879.499 93.1717 881.237 91.2648C882.974 89.3579 885.517 88.4045 888.864 88.4045C892.72 88.4045 895.708 89.5698 897.827 91.9005C899.988 94.2311 901.068 97.5152 901.068 101.753V104.613H890.898V102.388C890.898 100.482 890.369 98.9984 889.309 97.939C888.292 96.8796 886.915 96.3499 885.178 96.3499C883.355 96.3499 881.957 96.8796 880.982 97.939C880.05 98.9984 879.584 100.482 879.584 102.388V124H870.049ZM923.354 124.636C920.261 124.636 917.549 124.064 915.218 122.919C912.93 121.733 911.15 120.101 909.879 118.025C908.65 115.906 908.036 113.448 908.036 110.652V102.388C908.036 99.5916 908.65 97.155 909.879 95.0786C911.15 92.9599 912.93 91.3284 915.218 90.1843C917.549 88.9977 920.261 88.4045 923.354 88.4045C926.448 88.4045 929.117 88.9977 931.363 90.1843C933.652 91.3284 935.41 92.9599 936.639 95.0786C937.91 97.155 938.546 99.5916 938.546 102.388V108.745H917.125V110.652C917.125 112.855 917.655 114.529 918.714 115.673C919.774 116.775 921.363 117.326 923.481 117.326C924.965 117.326 926.151 117.072 927.041 116.563C927.973 116.055 928.588 115.355 928.884 114.465H938.228C937.465 117.517 935.728 119.974 933.016 121.839C930.346 123.703 927.126 124.636 923.354 124.636ZM929.456 103.85V102.261C929.456 100.1 928.948 98.4475 927.931 97.3034C926.956 96.1592 925.431 95.5872 923.354 95.5872C921.278 95.5872 919.71 96.1804 918.651 97.3669C917.634 98.5534 917.125 100.227 917.125 102.388V103.342L930.092 103.215L929.456 103.85Z" fill="#1928AA"/>
<path d="M993.172 85.258H980.986V124.435H993.172H1005.77C1019.9 124.435 1031.36 113.16 1031.36 99.25C1031.36 85.3404 1019.9 74.0645 1005.77 74.0645H993.172V85.258L1005.77 85.258C1013.62 85.258 1019.98 91.5224 1019.98 99.25C1019.98 106.978 1013.62 113.242 1005.77 113.242L993.172 113.242V85.258Z" fill="#1928AA"/>
<path d="M1052.49 124.636C1049.4 124.636 1046.68 124.064 1044.35 122.919C1042.07 121.733 1040.29 120.101 1039.01 118.025C1037.79 115.906 1037.17 113.448 1037.17 110.652V102.388C1037.17 99.5916 1037.79 97.155 1039.01 95.0786C1040.29 92.9599 1042.07 91.3284 1044.35 90.1843C1046.68 88.9977 1049.4 88.4045 1052.49 88.4045C1055.58 88.4045 1058.25 88.9977 1060.5 90.1843C1062.79 91.3284 1064.55 92.9599 1065.77 95.0786C1067.05 97.155 1067.68 99.5916 1067.68 102.388V108.745H1046.26V110.652C1046.26 112.855 1046.79 114.529 1047.85 115.673C1048.91 116.775 1050.5 117.326 1052.62 117.326C1054.1 117.326 1055.29 117.072 1056.18 116.563C1057.11 116.055 1057.72 115.355 1058.02 114.465H1067.36C1066.6 117.517 1064.86 119.974 1062.15 121.839C1059.48 123.703 1056.26 124.636 1052.49 124.636ZM1058.59 103.85V102.261C1058.59 100.1 1058.08 98.4475 1057.07 97.3034C1056.09 96.1592 1054.57 95.5872 1052.49 95.5872C1050.41 95.5872 1048.85 96.1804 1047.79 97.3669C1046.77 98.5534 1046.26 100.227 1046.26 102.388V103.342L1059.23 103.215L1058.59 103.85ZM1085.9 124L1074.46 89.0401H1084.31L1090.16 108.681C1090.5 109.868 1090.84 111.16 1091.17 112.559C1091.51 113.957 1091.77 115.08 1091.94 115.927C1092.15 115.08 1092.4 113.957 1092.7 112.559C1093.04 111.16 1093.36 109.889 1093.65 108.745L1099.44 89.0401H1109.16L1097.85 124H1085.9ZM1131.26 124.636C1128.17 124.636 1125.45 124.064 1123.12 122.919C1120.83 121.733 1119.05 120.101 1117.78 118.025C1116.55 115.906 1115.94 113.448 1115.94 110.652V102.388C1115.94 99.5916 1116.55 97.155 1117.78 95.0786C1119.05 92.9599 1120.83 91.3284 1123.12 90.1843C1125.45 88.9977 1128.17 88.4045 1131.26 88.4045C1134.35 88.4045 1137.02 88.9977 1139.27 90.1843C1141.56 91.3284 1143.31 92.9599 1144.54 95.0786C1145.81 97.155 1146.45 99.5916 1146.45 102.388V108.745H1125.03V110.652C1125.03 112.855 1125.56 114.529 1126.62 115.673C1127.68 116.775 1129.27 117.326 1131.39 117.326C1132.87 117.326 1134.06 117.072 1134.95 116.563C1135.88 116.055 1136.49 115.355 1136.79 114.465H1146.13C1145.37 117.517 1143.63 119.974 1140.92 121.839C1138.25 123.703 1135.03 124.636 1131.26 124.636ZM1137.36 103.85V102.261C1137.36 100.1 1136.85 98.4475 1135.84 97.3034C1134.86 96.1592 1133.33 95.5872 1131.26 95.5872C1129.18 95.5872 1127.61 96.1804 1126.55 97.3669C1125.54 98.5534 1125.03 100.227 1125.03 102.388V103.342L1138 103.215L1137.36 103.85ZM1176.3 124C1173.84 124 1171.68 123.491 1169.82 122.474C1167.95 121.415 1166.49 119.953 1165.43 118.089C1164.41 116.224 1163.91 114.063 1163.91 111.605V86.1798H1153.1V77.5987H1173.44V111.605C1173.44 112.749 1173.78 113.682 1174.46 114.402C1175.18 115.08 1176.11 115.419 1177.25 115.419H1187.42V124H1176.3ZM1209.96 124.636C1206.87 124.636 1204.18 124.064 1201.89 122.919C1199.6 121.733 1197.82 120.101 1196.55 118.025C1195.32 115.906 1194.71 113.448 1194.71 110.652V102.388C1194.71 99.5916 1195.32 97.155 1196.55 95.0786C1197.82 92.9599 1199.6 91.3284 1201.89 90.1843C1204.18 88.9977 1206.87 88.4045 1209.96 88.4045C1213.1 88.4045 1215.79 88.9977 1218.04 90.1843C1220.32 91.3284 1222.08 92.9599 1223.31 95.0786C1224.58 97.155 1225.22 99.5916 1225.22 102.388V110.652C1225.22 113.448 1224.58 115.906 1223.31 118.025C1222.08 120.101 1220.32 121.733 1218.04 122.919C1215.79 124.064 1213.1 124.636 1209.96 124.636ZM1209.96 116.372C1211.83 116.372 1213.25 115.885 1214.22 114.91C1215.2 113.893 1215.68 112.474 1215.68 110.652V102.388C1215.68 100.524 1215.2 99.1043 1214.22 98.1297C1213.25 97.1551 1211.83 96.6677 1209.96 96.6677C1208.14 96.6677 1206.72 97.1551 1205.71 98.1297C1204.73 99.1043 1204.24 100.524 1204.24 102.388V110.652C1204.24 112.474 1204.73 113.893 1205.71 114.91C1206.72 115.885 1208.14 116.372 1209.96 116.372ZM1234.47 135.441V89.0401H1243.69V95.7143H1245.92L1243.69 97.939C1243.69 94.9303 1244.52 92.5997 1246.17 90.947C1247.82 89.252 1250.09 88.4045 1252.97 88.4045C1256.49 88.4045 1259.31 89.6546 1261.43 92.1547C1263.54 94.6125 1264.6 97.9178 1264.6 102.071V110.969C1264.6 113.724 1264.12 116.139 1263.14 118.216C1262.21 120.25 1260.87 121.839 1259.14 122.983C1257.4 124.085 1255.34 124.636 1252.97 124.636C1250.09 124.636 1247.82 123.809 1246.17 122.157C1244.52 120.462 1243.69 118.11 1243.69 115.101L1245.92 117.326H1243.69L1244.01 125.907V135.441H1234.47ZM1249.54 116.372C1251.32 116.372 1252.67 115.885 1253.61 114.91C1254.58 113.893 1255.07 112.474 1255.07 110.652V102.388C1255.07 100.524 1254.58 99.1043 1253.61 98.1297C1252.67 97.1551 1251.32 96.6677 1249.54 96.6677C1247.8 96.6677 1246.45 97.1762 1245.47 98.1933C1244.5 99.1679 1244.01 100.566 1244.01 102.388V110.652C1244.01 112.474 1244.5 113.893 1245.47 114.91C1246.45 115.885 1247.8 116.372 1249.54 116.372ZM1272.33 124V89.0401H1279.83V94.1252H1281.36L1280.15 95.0151C1280.15 93.0234 1280.72 91.4343 1281.87 90.2478C1283.01 89.0189 1284.43 88.4045 1286.13 88.4045C1287.95 88.4045 1289.37 89.1884 1290.39 90.7563C1291.4 92.3242 1291.91 94.4006 1291.91 96.9855L1290.77 94.1252H1292.55L1291.97 95.0151C1291.97 93.0234 1292.53 91.4343 1293.63 90.2478C1294.73 89.0189 1296.21 88.4045 1298.08 88.4045C1300.2 88.4045 1301.91 89.2096 1303.23 90.8199C1304.54 92.3878 1305.2 94.5489 1305.2 97.3034V124H1297V97.939C1297 96.9644 1296.78 96.2228 1296.36 95.7143C1295.94 95.1634 1295.32 94.888 1294.52 94.888C1293.71 94.888 1293.1 95.1634 1292.67 95.7143C1292.25 96.2228 1292.04 96.9644 1292.04 97.939V124H1285.49V97.939C1285.49 96.9644 1285.28 96.2228 1284.86 95.7143C1284.43 95.1634 1283.82 94.888 1283.01 94.888C1282.21 94.888 1281.59 95.1634 1281.17 95.7143C1280.75 96.2228 1280.53 96.9644 1280.53 97.939V124H1272.33ZM1328.18 124.636C1325.09 124.636 1322.38 124.064 1320.04 122.919C1317.76 121.733 1315.98 120.101 1314.71 118.025C1313.48 115.906 1312.86 113.448 1312.86 110.652V102.388C1312.86 99.5916 1313.48 97.155 1314.71 95.0786C1315.98 92.9599 1317.76 91.3284 1320.04 90.1843C1322.38 88.9977 1325.09 88.4045 1328.18 88.4045C1331.27 88.4045 1333.94 88.9977 1336.19 90.1843C1338.48 91.3284 1340.24 92.9599 1341.47 95.0786C1342.74 97.155 1343.37 99.5916 1343.37 102.388V108.745H1321.95V110.652C1321.95 112.855 1322.48 114.529 1323.54 115.673C1324.6 116.775 1326.19 117.326 1328.31 117.326C1329.79 117.326 1330.98 117.072 1331.87 116.563C1332.8 116.055 1333.41 115.355 1333.71 114.465H1343.05C1342.29 117.517 1340.55 119.974 1337.84 121.839C1335.17 123.703 1331.95 124.636 1328.18 124.636ZM1334.28 103.85V102.261C1334.28 100.1 1333.77 98.4475 1332.76 97.3034C1331.78 96.1592 1330.26 95.5872 1328.18 95.5872C1326.1 95.5872 1324.54 96.1804 1323.48 97.3669C1322.46 98.5534 1321.95 100.227 1321.95 102.388V103.342L1334.92 103.215L1334.28 103.85ZM1352.63 124V89.0401H1361.84V95.7143H1364.64L1361.84 97.939C1361.84 94.9727 1362.69 92.642 1364.39 90.947C1366.08 89.252 1368.37 88.4045 1371.25 88.4045C1374.64 88.4045 1377.35 89.591 1379.39 91.964C1381.46 94.3371 1382.5 97.4941 1382.5 101.435V124H1372.97V102.388C1372.97 100.566 1372.48 99.1679 1371.51 98.1933C1370.57 97.1762 1369.24 96.6677 1367.5 96.6677C1365.81 96.6677 1364.49 97.1762 1363.56 98.1933C1362.63 99.1679 1362.16 100.566 1362.16 102.388V124H1352.63ZM1410.7 124C1407.14 124 1404.34 122.983 1402.31 120.949C1400.28 118.915 1399.26 116.118 1399.26 112.559V97.6212H1390.04V89.0401H1399.26V79.1878H1408.79V89.0401H1421.82V97.6212H1408.79V112.559C1408.79 114.465 1409.75 115.419 1411.65 115.419H1421.19V124H1410.7Z" fill="#1928AA"/>
</svg>
